<svg version="1.1" id="Linework" xmlns="http://www.w3.org/2000/svg" xmlns:xlink="http://www.w3.org/1999/xlink" x="0px" y="0px"
	 viewBox="0 0 341.1 310.8" style="enable-background:new 0 0 341.1 310.8;" xml:space="preserve">
<style type="text/css">
	.st0{fill:#4285F4;}
	.st1{fill:#2A56C6;}
	.st2{fill:none;}
	.st3{display:none;fill:none;}
	.st4{fill:#BDBDBD;}
	.st5{fill:#424242;}
	.st6{fill:#FFFFFF;}
	.st7{fill:none;stroke:#424242;stroke-width:3.4286;stroke-linecap:round;stroke-linejoin:round;stroke-miterlimit:10;}
	.st8{fill:none;stroke:#EEEEEE;stroke-width:2;stroke-miterlimit:10;}
	.st9{clip-path:url(#SVGID_2_);}
	.st10{fill:#F4EECB;}
	.st11{clip-path:url(#SVGID_2_);fill:none;}
	.st12{fill:#A5D6A7;}
	.st13{fill:#00695C;}
	.st14{clip-path:url(#SVGID_2_);fill:#FFD600;}
	.st15{clip-path:url(#SVGID_2_);fill:#FFFFFF;}
	.st16{clip-path:url(#SVGID_4_);fill:#4285F4;}
	.st17{clip-path:url(#SVGID_4_);}
	.st18{opacity:0.5;clip-path:url(#SVGID_4_);fill:#214380;}
</style>
<symbol  id="document_x5F_48" viewBox="0.5 -66 48 66">
	<g id="Content_13_">
		<g>
			<polygon class="st0" points="0.5,0 0.5,-66 48.5,-66 48.5,0 			"/>
			<path class="st1" d="M40.5-49h-32v3h32V-49z M26.5-51h-18v-3h18V-51z M40.5-36h-32v-3h32V-36z M40.5-41h-32v-3h32V-41z M40.5-24
				h-32v3h32V-24z M40.5-26h-32v-3h32V-26z M40.5-31h-32v-3h32V-31z M40.5-11h-32v-3h32V-11z M40.5-16h-32v-3h32V-16z"/>
			<polygon class="st2" points="48.5,0 0.5,0 0.5,-66 48.5,-66 			"/>
		</g>
	</g>
	<polygon class="st3" points="0.5,0 48.5,0 48.5,-66 0.5,-66 	"/>
</symbol>
<symbol  id="nexus_x5F_6_x5F_128_2" viewBox="0.5 -247 128 247">
	<g id="nexus_x5F_6_x5F_256_4_">
	</g>
	<g id="Linework_5_">
		<g>
			<polygon class="st4" points="120,-25 118,-25 118,-23 120,-23 			"/>
			<polygon class="st4" points="117,-25 115,-25 115,-23 117,-23 			"/>
			<polygon class="st4" points="114,-25 112,-25 112,-23 114,-23 			"/>
			<polygon class="st4" points="111,-25 109,-25 109,-23 111,-23 			"/>
		</g>
	</g>
	<path class="st5" d="M100.3,0H27.5c0,0-27,1.2-27-17.6c0-10.1,0-201.2,0-211.3c0-18.8,27-18.1,27-18.1h72.9c0,0,28.2-0.7,28.2,18.1
		c0,10.1,0,201.2,0,211.3C128.5,1.2,100.3,0,100.3,0z"/>
	<polygon class="st6" points="121.5,-230 7.5,-230 7.5,-21 121.5,-21 	"/>
	<polygon points="121.5,-230 7.5,-230 7.5,-216 121.5,-216 	"/>
	<polygon points="121.5,-27 7.5,-27 7.5,-21 121.5,-21 	"/>
	<line class="st7" x1="99.1" y1="-7.6" x2="99.1" y2="-7.6"/>
	<line class="st8" x1="47.5" y1="-8" x2="79.5" y2="-8"/>
	<line class="st8" x1="47.5" y1="-238" x2="79.5" y2="-238"/>
	<polygon class="st3" points="0.5,0 128.5,0 128.5,-247 0.5,-247 	"/>
</symbol>
<symbol  id="photo_x5F_landscape_x5F_128" viewBox="-0.5 -176 130 176">
	<g id="Content_8_">
	</g>
	<g id="NEW_11_">
	</g>
	<g id="Photo_Landscape_2_2_">
		<g>
			<defs>
				<polygon id="SVGID_1_" points="128.5,-176 0.5,-176 0.5,0 128.5,0 				"/>
			</defs>
			<clipPath id="SVGID_2_">
				<use xlink:href="#SVGID_1_"  style="overflow:visible;"/>
			</clipPath>
			<g class="st9">
				<polygon class="st10" points="127.5,-176 -0.5,-176 -0.5,0 127.5,0 				"/>
			</g>
			<path class="st11" d="M107.7-34.4c0-8.4-6.8-15.2-15.2-15.2c-8.4,0-15.2,6.8-15.2,15.2c0,8.4,6.8,15.2,15.2,15.2
				C100.9-19.1,107.7-26,107.7-34.4z"/>
			<g class="st9">
				<path class="st12" d="M128.5-89.7c-45-20-77,30.4-93.3,51.7c0,0-14.7-33.6-34.7-40.1V-176h128V-89.7z"/>
				<path class="st13" d="M128.5-122.5c-54,15-52-43.4-128-20.6V-176h128V-122.5z"/>
				<path class="st13" d="M58.5-134.2c0,0-8.4,3.2-14,16.9c0,0,4.4-3.2,10.5,1.2c0,0-8.7,3.5-14,19.2c0,0,2.6-2,6.4,0
					c0,0-7,5.5-12.2,25.6C30-91.4,23-96.9,23-96.9c3.8-2,6.4,0,6.4,0c-5.2-15.7-14-19.2-14-19.2c6.1-4.4,10.5-1.2,10.5-1.2
					c-5.5-13.7-14-16.9-14-16.9c10.5-5.2,19.2,0.5,19.2,0.5c0-15.7-1.7-17.3-1.7-17.3H41c0,0-1.7,1.6-1.7,17.3
					C39.3-133.7,48-139.4,58.5-134.2z"/>
			</g>
			<path class="st14" d="M74-30c0-5.5,4.5-10,10-10s10,4.5,10,10c0,5.5-4.5,10-10,10S74-24.5,74-30z"/>
			<path class="st15" d="M120.5-38.2c-0.4,0-0.9-0.3-1.3-0.4c0.5,1.2,0.7,2.4,0.7,3.7c0,6-5,10.8-11.1,10.8c-4.9,0-9-3.1-10.5-7.5
				c-1.4,0.9-3.1,1.5-5,1.5c-5,0-9-4-9-8.9c0-0.8-0.3-1.1-0.5-1.1c-3.6,0-6.5-2-6.9-5h52h0C129-40,125.2-38.2,120.5-38.2z"/>
		</g>
	</g>
	<polygon class="st3" points="-0.5,0 129.5,0 129.5,-176 -0.5,-176 	"/>
</symbol>
<g>
	
		<use xlink:href="#document_x5F_48"  width="48" height="66" x="0.5" y="-66" transform="matrix(-3.2409 0.8684 -0.8684 -3.2409 157.1843 29.966)" style="overflow:visible;"/>
	
		<use xlink:href="#photo_x5F_landscape_x5F_128"  width="130" height="176" x="-0.5" y="-176" transform="matrix(-0.9647 -0.2585 0.2585 -0.9647 340.2547 122.937)" style="overflow:visible;"/>
	
		<use xlink:href="#nexus_x5F_6_x5F_128_2"  width="128" height="247" x="0.5" y="-247" transform="matrix(-1.2582 0 0 -1.2582 266.02 2.050463e-02)" style="overflow:visible;"/>
	<g>
		<g>
			<defs>
				<path id="SVGID_3_" d="M137.1,101.7v25.2c0,7.8-0.2,15.6,1.2,23.4c1.5,8.9,4.5,17.4,8.7,25.4c8.5,16.3,21.9,29.5,38.7,37.1
					c16.8-7.6,30.2-20.8,38.7-37.1c4.2-8,7.2-16.5,8.7-25.4c1.3-7.8,1.2-15.6,1.2-23.4v-25.2l-48.6-13.9L137.1,101.7z"/>
			</defs>
			<clipPath id="SVGID_4_">
				<use xlink:href="#SVGID_3_"  style="overflow:visible;"/>
			</clipPath>
			<path class="st16" d="M137.1,101.7v25.2c0,7.8-0.2,15.6,1.2,23.4c1.5,8.9,4.5,17.4,8.7,25.4c8.5,16.3,21.9,29.5,38.7,37.1
				c16.8-7.6,30.2-20.8,38.7-37.1c4.2-8,7.2-16.5,8.7-25.4c1.3-7.8,1.2-15.6,1.2-23.4v-25.2l-48.6-13.9L137.1,101.7z"/>
			<g class="st17">
				<path class="st6" d="M204.4,138.3h-3.9v-7.1c0-8.2-6.8-15-15-15c-8.2,0-15,6.7-15,15v7.1h-3.6c-2.1,0-3.4,2.1-3.4,4.1v30
					c0,2.1,1.4,3.9,3.4,3.9h37.5c2.1,0,4.1-1.8,4.1-3.9v-30C208.5,140.4,206.5,138.3,204.4,138.3z M188.5,159v6.3h-5V159
					c-2-0.9-3.9-3.1-3.9-5.6c0-3.4,2.7-6.1,6.1-6.1s6.3,2.7,6.3,6.1C192.1,155.9,190.5,158.1,188.5,159z M194.5,138.3h-18v-7.5
					c0-4.9,4.2-8.8,9-8.8s9,4,9,8.8V138.3z"/>
			</g>
			<path class="st18" d="M191.8,153.4c0-3.4-2.7-6.1-6.1-6.1s-6.1,2.7-6.1,6.1c0,2.5,1.5,4.7,3.7,5.6v6.3h4.8V159
				C190.3,158.1,191.8,155.9,191.8,153.4z"/>
		</g>
	</g>
	<g>
		<path class="st2" d="M268.5,49.7c0,0-39.6,44.4-168,74.1"/>
	</g>
	<g>
		<path class="st2" d="M41.9,239.8c88.9-4.9,224.1-38.7,299.2-118"/>
	</g>
	<g>
		<path class="st2" d="M10.7,115.6C169,219.6,164,219.1,319.5,209.1"/>
	</g>
</g>
</svg>