<svg version="1.1" id="Linework" xmlns="http://www.w3.org/2000/svg" xmlns:xlink="http://www.w3.org/1999/xlink" x="0px" y="0px"
	 viewBox="0 0 391 314.7" style="enable-background:new 0 0 391 314.7;" xml:space="preserve">
<style type="text/css">
	.st0{fill:#424242;}
	.st1{fill:none;stroke:#FFFFFF;stroke-miterlimit:10;}
	.st2{fill:#FFFFFF;}
	.st3{opacity:7.000000e-02;}
	.st4{fill:#BDBDBD;}
	.st5{fill:#E0DEDC;}
	.st6{clip-path:url(#SVGID_2_);fill:#FFFFFF;}
	.st7{clip-path:url(#SVGID_2_);fill:#9E9E9E;}
	.st8{fill:#EEEEEE;}
	.st9{clip-path:url(#SVGID_6_);fill:#B71C1C;}
	.st10{clip-path:url(#SVGID_6_);fill:#FF3D00;}
	.st11{clip-path:url(#SVGID_6_);}
	.st12{fill:#B71C1C;}
	.st13{clip-path:url(#SVGID_8_);}
	.st14{fill:#DB4437;}
	.st15{clip-path:url(#SVGID_10_);}
	.st16{fill:#FF3D00;}
	.st17{fill:#00E676;}
</style>
<g>
	<g>
		<g>
			<path class="st0" d="M377.9,0h-367C2.5,2,0,7.5,0,15.1v234.6c0,7.7,3.3,15.3,10.9,15.3h367c7.6,0,13.1-7.6,13.1-15.3V15.1
				C391,7.5,384.7,2,377.9,0z"/>
			<circle class="st1" cx="23.1" cy="131.9" r="3.8"/>
			<rect x="38" y="14" class="st2" width="322" height="236"/>
		</g>
		<g class="st3">
			<ellipse cx="194.9" cy="306.7" rx="166" ry="8"/>
		</g>
		<g>
			<g>
				<g>
					<polygon points="360,22.1 38,22.2 38,14 360,14 					"/>
					<g>
						<g>
							<rect x="352.4" y="16.2" class="st4" width="4" height="4"/>
						</g>
						<g>
							<rect x="346.4" y="16.2" class="st4" width="4" height="4"/>
						</g>
						<g>
							<rect x="340.4" y="16.2" class="st4" width="4" height="4"/>
						</g>
						<g>
							<rect x="334.4" y="16.2" class="st4" width="4" height="4"/>
						</g>
					</g>
				</g>
			</g>
		</g>
	</g>
	<rect x="38" y="22" class="st5" width="322" height="46"/>
	<g>
		<defs>
			<rect id="SVGID_1_" x="43" y="73" width="190" height="177"/>
		</defs>
		<use xlink:href="#SVGID_1_"  style="overflow:visible;fill:#E0EAF1;"/>
		<clipPath id="SVGID_2_">
			<use xlink:href="#SVGID_1_"  style="overflow:visible;"/>
		</clipPath>
		<path class="st6" d="M175.3,214.7c-2.4-1.2-4.4-3.8-4.7-7.1c-3.6,1.9-7.9,1.5-10.6-1.5c-2.7-3-3.1-8.8-0.6-12.7
			c-3.5,0.6-6.6-3.8-5.8-8.1c-6.1,3.1-13.2,1.2-17-4.6c0.2,0.3-4.7,3-5.2,3.1c-2,0.7-4,0.9-6,0.6c-4.1-0.6-7.7-3.3-9.7-7.7
			c-2,1.9-4.9,2-6.6,0.2c-1.5,2-3.7,3.1-5.8,2.8c-2.1-0.3-3.8-2-4.6-4.3c0.1,0.4-8.9,0.3-9.7,0.1c-3.1-0.8-6.1-2.5-8.5-4.9
			c-5.3,7-13.9,9.8-20.6,6.8c-7.3-3.3-12.9-14.2-9.5-24.3c1.9-5.7,5.9-9.8,10.7-11.6c-0.2-3,0.2-6,1.2-9
			c3.8-11.5,15.2-17.6,25.4-13.5c5,2,8.7,6,10.9,10.9c4.9-3.3,11.1-4.3,16.9-2c9,3.6,14.1,13.8,12.7,24c1.3,0,2.6,0.3,3.9,0.7
			c3.2-1.9,7.1-2.4,10.8-0.9c2.6,1,4.8,2.9,6.3,5.3c1,0.1,2,0.4,3,0.8c0.2,0.1,0.3,0.1,0.5,0.2c1.9-0.9,4.1-1.1,6.2-0.2
			c2.3,0.9,4,2.8,4.9,5.2c2.3-2.4,5.7-3.3,8.8-2.1c0.1,0.1,0.3,0.1,0.4,0.2c1.8-0.8,3.9-0.8,5.8-0.1c4.4,1.8,6.7,7.2,5.1,12.2
			c-0.4,1.2-1,2.3-1.8,3.3c0,0,0,0,0,0c4.4,1.8,6.7,7.2,5.1,12.2c-1.6,5-6.6,7.6-11,5.8c-2-0.8-3.6-2.4-4.5-4.3
			c-0.8,1.8,2.5,4.8,3.1,7c4-3.2,9.7-1.5,11.4,3.5c1.7,5-1,12-5.5,14C178.8,215.6,176.9,215.5,175.3,214.7 M172.8,179.1
			C172.8,179.1,172.7,179.1,172.8,179.1c0,0,0,0.1,0,0.1C172.8,179.2,172.8,179.2,172.8,179.1C172.8,179.1,172.8,179.1,172.8,179.1"
			/>
		<path class="st6" d="M186.2,170.3c1.8,9.2-3.3,19.6-11.2,23.2c-6.9,3.1-13.9,0-16.8-7.6c-0.7-1.8-2.7-2.5-4.4-1.6
			c-3.2,1.9-6.8,2.7-10.2,2.3c-1.1-0.1-2.2,0.3-2.8,1.2c-0.9,1.4-2.2,2.4-3.6,2.6c-1.2,0.2-2.3-0.1-3.3-0.9c-0.9-0.7-2-1-3-0.6
			c-0.6,0.2-1.2,0.4-1.3,0.4c-1,0-1.9-0.4-2.6-1.3c0.9,1.2-6.1,6.4-6.9,6.7c-3.2,1.4-6.6,0.9-9.4-1c-1.1-0.7-2.5-0.7-3.5,0.1
			c-2.1,1.6-5.5,3.7-6,3.8c-1.5,0.4-3,0.5-4.4,0.2c-1.5-0.3-3,0.6-3.5,2.1c-0.4,1.5-1.2,2.8-2.2,3.7c-1.3,1.1-2.9,1.5-4.4,1
			c-0.9-0.3-1.8-0.3-2.6,0.1c-1.5,0.7-3.2,0.6-4.5-0.2c-1.1-0.8-2.7-0.8-3.7,0.2c-1.6,1.5-3.7,2.3-5.6,2.2
			c-7.7-0.8-7.5-13.9-0.2-17.2c0,0,0,0,0,0c-0.6-0.8-1-1.9-1.2-3c-0.9-4.6,1.6-9.8,5.6-11.6c1.8-0.8,3.5-0.8,5-0.1
			c0.1-0.1,0.3-0.1,0.4-0.2c1.9-0.8,3.7-0.8,5.2,0c1.3,0.6,2.8,0.2,3.7-0.9c0.9-1,1.9-1.9,3.1-2.4c1.9-0.8,3.8-0.8,5.3,0
			c0.1-0.1,0.3-0.1,0.4-0.2c0.6-0.3,1.2-0.5,1.8-0.6c0.6-0.2,1.1-0.6,1.5-1.1c1.4-1.8,3.2-3.3,5.2-4.2c2.9-1.3,5.8-1.2,8.2,0
			c0.6,0.3,1.2,0.4,1.8,0.2c0.1,0,0.2,0,0.2-0.1c1.2-0.4,2.2-1.4,2.3-2.7c0.6-8.8,5.8-17.3,13.2-20.6c4.2-1.9,8.4-1.8,11.9-0.1
			c1.4,0.7,2.9,0.1,3.8-1.1c2.3-3.5,5.4-6.3,9-7.9c9.2-4.1,18.3,1.2,20.3,11.9c0.7,3.8,0.5,7.7-0.6,11.4c-0.4,1.4,0.2,3,1.6,3.5
			C182.2,161.3,185.2,165.1,186.2,170.3 M78,191.7c0,0,0-0.1,0-0.1c0,0,0,0,0,0c0,0,0,0,0,0C77.9,191.7,77.9,191.7,78,191.7"/>
		<path class="st6" d="M249.8,136.7c-1-11.9-11-20.6-22.3-19.3c-11.5,1.3-20.1,12.4-18.5,25.7c-7.3-1.7-15.2,0.4-21.2,5.6
			c-1.8-2-4.6-2.7-7.1-1.9c-2.4,0.9-4.4,3.3-4.9,6.1c0.1-0.7-4,0.3-4.3,0.4c-1.2,0.7-2.3,1.8-2.8,3.3c0.7-2-10-3.2-11.1-3.1
			c-5.7,0.6-10.6,5.1-13.4,10.8c0.6-1.3-10.5-1.6-11.5-1.4c-3.6,0.9-6.8,3.1-9.3,6.2c-0.6-3.1-3-5.7-5.7-6.3
			c-2.7-0.6-5.7,0.9-7.2,3.6c-4-1-8.4,2.4-9.1,7c-3.3-2.3-7.6-2.3-11-0.2c-9.5,6.2-4.7,21.3,5.8,20.1c0,0,0,0,0.1,0
			c-0.4,1.4-0.6,2.8-0.5,4.3c0.5,6,5.5,10.3,11.1,9.7c2.5-0.3,4.7-1.5,6.4-3.3c0.2,0,0.4,0,0.5,0c4-0.5,7.2-3.3,8.6-7
			c2,1.9,4.8,2.9,7.8,2.6c2.7-0.3,5-1.7,6.7-3.7c0.2,0,0.4,0,0.6-0.1c1.3-0.1,2.5-0.4,3.7-0.9c2.7,1.6,5.9,2.3,9.3,1.9
			c4.7-0.5,8.7-3.2,11.4-6.9c1.6-0.2,3.2-0.7,4.6-1.4c3.1,11.3,13.4,18.8,24.9,17.5c7.4-0.8,13.7-5.2,17.6-11.3
			c4.6,3.8,10.6,5.8,16.9,5.1c13.1-1.5,22.7-13.9,21.6-27.7c-0.5-6.2-3.1-11.5-6.9-15.5C246.7,152.6,250.5,144.9,249.8,136.7
			 M105.1,185.8c0,0,0,0.1,0.1,0.1c0,0,0,0-0.1,0c0,0,0,0-0.1,0C105.1,185.9,105.1,185.9,105.1,185.8"/>
		<path class="st7" d="M33.7,158c0,0,36.1,5.8,62.9,15.2c17.2,6,27.2,10.2,50.6,16c31,7.8,50.8,9.3,90.9,3.8l0.5,50.5l-211.1-0.8
			l0.3-85.2L33.7,158z"/>
	</g>
	<g>
		<g>
			<rect x="47" y="32" class="st4" width="79" height="6"/>
		</g>
		<g>
			<rect x="47" y="41" class="st4" width="51" height="6"/>
		</g>
	</g>
	<g>
		<g id="ad_2_">
			<defs>
				<rect id="SVGID_3_" x="238" y="73" width="117" height="177"/>
			</defs>
			<use xlink:href="#SVGID_3_"  style="overflow:visible;fill:#EABD63;"/>
			<clipPath id="SVGID_4_">
				<use xlink:href="#SVGID_3_"  style="overflow:visible;"/>
			</clipPath>
		</g>
		<ellipse class="st8" cx="292.6" cy="227.8" rx="40.9" ry="3.7"/>
		<g>
			<defs>
				<rect id="SVGID_5_" x="238" y="73" width="117" height="177"/>
			</defs>
			<use xlink:href="#SVGID_5_"  style="overflow:visible;fill:#FFD600;"/>
			<clipPath id="SVGID_6_">
				<use xlink:href="#SVGID_5_"  style="overflow:visible;"/>
			</clipPath>
			<path class="st9" d="M346.4,202.9c0,0,22.6-14.8,28-18.2c5.4-3.3,10.2-2.1,11.9,7.5c0.7,4,5.6,3.3,4.9-1.3
				c-1.7-10.5-8.8-17-18.5-11.5c-9.2,5.2-28.3,16.3-28.3,16.3L346.4,202.9z"/>
			<path class="st9" d="M248.2,190.9c0,0,26.1-13,32.4-15.9c6.3-2.9,11.3-1.2,12,8.5c0.3,4,5.7,3.7,5.4-0.9
				c-0.6-10.6-7.5-17.7-18.7-12.9c-10.5,4.5-32.5,14-32.5,14L248.2,190.9z"/>
			<path class="st10" d="M344.9,195.1c-3.5-0.4-7.1-2.6-10.2-4.8c-3.6-2.7-8.1-5.7-13.9-6.4c-3.9-0.5-8,0.2-11.3,1.8l-0.3,0.1
				c-0.8,0.2-1.6,0.5-2.4,0.4c-0.3,0-0.6,0-0.9-0.1c-0.4-0.1-0.9-0.3-1.6-0.7c-1.6-0.8-4.1-2-8.8-2.6c-1-0.1-1.9-0.2-2.7-0.2
				c-3-0.1-4.8,0-6.2,0.3c-0.6,0.2-1.2,0.9-1.6-0.1h0c-1.3,0-2.1-0.2-3.2-0.8l-0.2,0c-3.2-2.5-7-3.9-10.9-4.4
				c-0.6-0.1-1.2-0.1-1.8-0.1c-5-0.2-8.8,1.6-12.2,3.2c-2.9,1.3-5.6,2.6-8.7,2.5c-0.3,0-0.6,0-0.9-0.1c-0.2,0-0.1,0-0.3,0.2
				c-0.2,0.1,0,0.3,0,0.5l-0.2,6.5c0,0.3-0.1,0.6,0.2,0.7c2.7,1.2,2.6,2.1,2.6,4.7c0,1.6-0.1,3.8,0.6,6.7c2,8.5,10.2,15.8,19.2,16.9
				c0.6,0.1,1.2,0.1,1.8,0.1c9,0.3,16.6-5.2,19-13.7c1.6-4.8,1.8-10.1,0.9-11.3c-0.2-0.2-0.4-0.4-0.6-0.6c-0.7-0.7-1.6-1.6-1.5-3.4
				c0-0.6,0.1-2.4,4.6-2.2c0.5,0,1.1,0.1,1.7,0.1c2.9,0.4,6.3,1.3,6.2,3.8c-0.1,1.8-1,2.4-1.7,2.9c-0.2,0.2-0.4,0.3-0.6,0.5
				c-1,1-1.2,6.3,0.1,11.5c1.9,9.7,10,17.3,19.7,18.4c0.6,0.1,1.2,0.1,1.8,0.1l0,0c8.5,0.3,16.2-4.8,18.6-12.3
				c0.9-2.8,1-4.9,1.1-6.5c0.2-2.7,1.7-3.4,4.4-3.9c0.3-0.1,2.1-0.3,2.1-0.6l0.2-6.5C347,195.6,345.2,195.2,344.9,195.1z"/>
			<g class="st11">
				<path class="st12" d="M270.5,182.3c-9.1-1.1-16.7,5.4-17,14.5c-0.3,9.1,6.8,17.4,15.9,18.5c9.1,1.1,16.7-5.4,17-14.5
					C286.7,191.7,279.6,183.4,270.5,182.3z"/>
			</g>
			<g class="st11">
				<defs>
					<path id="SVGID_7_" d="M270.5,182.3c-9.1-1.1-16.7,5.4-17,14.5c-0.3,9.1,6.8,17.4,15.9,18.5c9.1,1.1,16.7-5.4,17-14.5
						C286.7,191.7,279.6,183.4,270.5,182.3z"/>
				</defs>
				<clipPath id="SVGID_8_">
					<use xlink:href="#SVGID_7_"  style="overflow:visible;"/>
				</clipPath>
				<g class="st13">
					<polygon class="st2" points="269.5,181.8 278.6,225.2 282.7,224.7 273.5,181.4 					"/>
				</g>
			</g>
			<g class="st11">
				<path class="st14" d="M320.2,188.3c-9.1-1.1-16.7,5.4-17,14.5c-0.3,9.1,6.8,17.4,15.9,18.5c9.1,1.1,16.7-5.4,17-14.5
					C336.4,197.7,329.3,189.4,320.2,188.3z"/>
				<path class="st12" d="M318.8,188.4c-8.5-0.3-15.1,5.9-15.4,14.4c-0.3,9,6.7,17.2,15.7,18.3c0.5,0.1,1,0.1,1.5,0.1
					c8.5,0.3,15.1-5.9,15.4-14.4c0.3-9-6.7-17.2-15.7-18.3C319.7,188.5,319.2,188.4,318.8,188.4z"/>
			</g>
			<g class="st11">
				<defs>
					<path id="SVGID_9_" d="M320.2,188.3c-9.1-1.1-16.7,5.4-17,14.5c-0.3,9.1,6.8,17.4,15.9,18.5c9.1,1.1,16.7-5.4,17-14.5
						C336.4,197.7,329.3,189.4,320.2,188.3z"/>
				</defs>
				<clipPath id="SVGID_10_">
					<use xlink:href="#SVGID_9_"  style="overflow:visible;"/>
				</clipPath>
				<g class="st15">
					<polygon class="st2" points="319.5,184.9 328.5,228.3 332.6,227.8 323.5,184.5 					"/>
				</g>
			</g>
		</g>
		<g>
			<g>
				<path class="st16" d="M326,100h-75V88h75V100z"/>
			</g>
			<g>
				<path class="st16" d="M307,119h-56v-12h56V119z"/>
			</g>
		</g>
		<g>
			<g>
				<path class="st16" d="M319,137h-68v-12h68V137z"/>
			</g>
		</g>
		<polygon class="st17" points="325.9,126 328.9,129.2 332.8,127 334.6,131.1 339,130.2 339.5,134.6 343.9,135.1 343,139.5 
			347.1,141.3 344.9,145.2 348.2,148.2 344.9,151.2 347.1,155.1 343,156.9 343.9,161.3 339.5,161.8 339,166.2 334.6,165.3 
			332.8,169.4 328.9,167.2 325.9,170.5 322.9,167.2 319,169.4 317.2,165.3 312.8,166.2 312.3,161.8 307.9,161.3 308.8,156.9 
			304.7,155.1 306.9,151.2 303.6,148.2 306.9,145.2 304.7,141.3 308.8,139.5 307.9,135.1 312.3,134.6 312.8,130.2 317.2,131.1 
			319,127 322.9,129.2 		"/>
		<g>
			<path class="st2" d="M329.4,151.1h-5c0,0.8,0.2,1.5,0.4,2.1c0.2,0.6,0.6,1,1,1.4c0.4,0.3,0.9,0.6,1.4,0.7
				c0.5,0.1,1.2,0.2,1.8,0.2c0.5,0,1,0,1.5-0.1c0.5-0.1,0.9-0.2,1.4-0.4l0.5,3.6c-0.6,0.1-1.2,0.2-1.9,0.3c-0.6,0.1-1.3,0.1-2,0.1
				c-1.2,0-2.4-0.2-3.4-0.5c-1-0.3-1.9-0.8-2.7-1.5c-0.8-0.7-1.4-1.5-1.8-2.5c-0.4-1-0.7-2.2-0.7-3.5h-2.5v-2.3h2.5v-1.9h-2.5v-2.3
				h2.6c0.1-1.3,0.4-2.5,0.8-3.5c0.5-1,1.1-1.8,1.9-2.5c0.8-0.7,1.7-1.2,2.7-1.5c1.1-0.3,2.2-0.5,3.5-0.5c0.6,0,1.2,0,1.8,0.1
				c0.6,0.1,1.2,0.2,1.8,0.3l-0.5,3.6c-0.4-0.1-0.9-0.3-1.3-0.3c-0.5-0.1-1-0.1-1.4-0.1c-0.7,0-1.3,0.1-1.8,0.2
				c-0.5,0.2-1,0.4-1.4,0.8c-0.4,0.3-0.7,0.8-1,1.3c-0.2,0.5-0.4,1.2-0.5,2l5,0v2.3l-5,0v1.9l5,0V151.1z"/>
		</g>
		<ellipse class="st8" cx="290.7" cy="234.6" rx="36.1" ry="3.3"/>
	</g>
</g>
</svg>